<svg height="427pt" viewBox="0 0 427.68989 427" width="427pt" xmlns="http://www.w3.org/2000/svg"><path d="m332.953125 146.824219v-.828125c-6.484375-2.828125-12.914063-5.773438-19.296875-8.832032 6.375 3.335938 12.804688 6.558594 19.296875 9.660157zm0 0" fill="#d4e1f4"/><path d="m173.464844 332.109375c-4.5-3.308594-20.210938-17.21875-20.210938-17.21875-25.578125-25.460937-38.515625-55.726563-38.515625-90.261719v-68.632812c41.039063-17.910156 79.992188-40.253906 116.167969-66.640625-5.75-3.953125-11.4375-8-17.0625-12.140625-36.996094 27.320312-76.949219 50.390625-119.105469 68.78125v68.632812c0 34.535156 12.9375 64.800782 38.515625 90.261719 0 0 15.707032 13.910156 20.210938 17.21875 12.820312 9.316406 26.605468 17.222656 41.121094 23.582031-7.308594-4.097656-14.359376-8.632812-21.121094-13.582031zm0 0" fill="#d4e1f4"/><g fill="#0635c9"><path d="m341.324219 136.539062-.824219-.351562c-43.691406-18.800781-85-42.714844-123.054688-71.25-2.132812-1.601562-5.066406-1.601562-7.199218 0-38.058594 28.535156-79.363282 52.453125-123.054688 71.253906l-.824218.351563c-2.203126.949219-3.628907 3.113281-3.628907 5.511719v72.578124c0 46.175782 22.101563 86.761719 63.921875 117.371094 31.226563 22.855469 62.035156 32.023438 63.332032 32.402344 1.082031.316406 2.230468.320312 3.3125.015625 1.339843-.378906 33.183593-9.53125 65.472656-32.359375 43.292968-30.605469 66.175781-71.210938 66.175781-117.429688v-72.582031c0-2.394531-1.429687-4.5625-3.628906-5.511719zm-8.371094 78.089844c0 33.898438-12.945313 63.691406-38.515625 88.867188v-5.078125c0-3.3125-2.6875-6-6-6-3.316406 0-6 2.6875-6 6v7.648437c0 2.28125 1.292969 4.363282 3.339844 5.375-4.265625 3.644532-8.816406 7.1875-13.648438 10.621094-18.558594 12.992188-38.914062 23.199219-60.421875 30.300781-20.808593-7.128906-40.441406-17.324219-58.242187-30.25-4.503906-3.308593-8.746094-6.71875-12.730469-10.234375 2.65625-.675781 4.515625-3.066406 4.519531-5.808594v-7.648437c0-3.3125-2.6875-6-6-6s-6 2.6875-6 6v6.46875c-25.578125-25.460937-38.515625-55.726563-38.515625-90.261719v-68.632812c42.15625-18.390625 82.109375-41.460938 119.105469-68.78125 37 27.320312 76.953125 50.390625 119.109375 68.78125zm0 0"/><path d="m213.84375 292.417969c-3.3125 0-6 2.6875-6 6v7.648437c0 3.316406 2.6875 6 6 6 3.316406 0 6-2.683594 6-6v-7.648437c0-3.3125-2.683594-6-6-6zm0 0"/><path d="m238.707031 292.417969c-3.3125 0-6 2.6875-6 6v7.648437c0 3.316406 2.6875 6 6 6 3.316407 0 6-2.683594 6-6v-7.648437c0-3.3125-2.683593-6-6-6zm0 0"/><path d="m257.574219 306.066406c0 3.316406 2.683593 6 6 6 3.3125 0 6-2.683594 6-6v-7.648437c0-3.3125-2.6875-6-6-6-3.316407 0-6 2.6875-6 6zm0 0"/><path d="m188.980469 292.417969c-3.3125 0-6 2.6875-6 6v7.648437c0 3.316406 2.6875 6 6 6 3.316406 0 6-2.683594 6-6v-7.648437c0-3.3125-2.683594-6-6-6zm0 0"/><path d="m164.117188 292.417969c-3.3125 0-6 2.6875-6 6v7.648437c0 3.316406 2.6875 6 6 6s6-2.683594 6-6v-7.648437c0-3.3125-2.6875-6-6-6zm0 0"/><path d="m179.027344 206.519531c-1.511719-1.546875-3.734375-2.167969-5.828125-1.617187-2.089844.550781-3.726563 2.183594-4.277344 4.277344-.550781 2.089843.070313 4.316406 1.617187 5.824218l28.328126 28.328125c2.34375 2.34375 6.140624 2.34375 8.484374 0l49.800782-49.800781c2.34375-2.34375 2.34375-6.144531 0-8.484375-2.34375-2.34375-6.144532-2.347656-8.488282-.003906l-45.554687 45.554687zm0 0"/></g><path d="m12 216.863281c0-109.824219 89.34375-199.171875 199.171875-199.171875 22.320313-.027344 44.484375 3.703125 65.5625 11.042969 3.117187 1.046875 6.492187-.609375 7.574219-3.710937 1.082031-3.101563-.535156-6.5-3.621094-7.617188-77.035156-26.777344-162.601562-6.832031-219.855469 51.246094-57.257812 58.074218-75.980469 143.917968-48.109375 220.5625.714844 2.035156 2.472656 3.53125 4.597656 3.914062 2.125.382813 4.292969-.410156 5.675782-2.070312 1.378906-1.660156 1.761718-3.933594 1-5.957032-7.96875-21.867187-12.027344-44.964843-11.996094-68.238281zm0 0" fill="#1ae5be"/><path d="m398.246094 132.289062c-3.058594 1.28125-4.5 4.792969-3.222656 7.851563 10.164062 24.296875 15.371093 50.382813 15.320312 76.722656 0 109.824219-89.347656 199.171875-199.171875 199.171875-41.300781.125-81.597656-12.710937-115.21875-36.699218l28.238281-38.324219c1.425782-1.9375 1.558594-4.535157.339844-6.605469s-3.558594-3.214844-5.941406-2.90625l-66.308594 8.613281c-1.621094.210938-3.085938 1.074219-4.058594 2.390625-.96875 1.316406-1.359375 2.972656-1.082031 4.582032l11.421875 65.886718c.410156 2.367188 2.195312 4.261719 4.535156 4.8125 2.339844.554688 4.78125-.34375 6.207032-2.277344l19.53125-26.511718c76.839843 54.550781 180.515624 51.605468 254.136718-7.214844 73.617188-58.820312 99.371094-159.292969 63.125-246.273438-1.28125-3.058593-4.796875-4.496093-7.851562-3.21875zm-330.261719 264.78125-7.953125-45.863281 46.160156-5.992187-23.367187 31.714844c-.023438.023437-.042969.046874-.0625.070312-.035157.046875-.0625.089844-.09375.132812zm0 0" fill="#1ae5be"/><path d="m421.691406 49.183594h-42.839844v-42.839844c0-3.3125-2.683593-6-6-6-3.3125 0-6 2.6875-6 6v42.839844h-45.160156c-3.316406 0-6 2.683594-6 6 0 3.3125 2.683594 6 6 6h45.160156v45.160156c0 3.316406 2.6875 6 6 6 3.316407 0 6-2.683594 6-6v-45.160156h42.839844c3.3125 0 6-2.6875 6-6 0-3.316406-2.6875-6-6-6zm0 0" fill="#1ae5be"/></svg>